<svg width="1034" height="100" viewBox="0 0 1034 100" fill="none" xmlns="http://www.w3.org/2000/svg">
<rect x="9.5" width="1013" height="83" fill="#669988"/>
<path d="M60.684 52H64.236V45.28H66.708L70.356 52H74.316L70.164 44.728C72.204 43.936 73.548 42.28 73.548 39.616C73.548 35.536 70.596 34.216 66.876 34.216H60.684V52ZM64.236 42.472V37.048H66.54C68.82 37.048 70.092 37.696 70.092 39.616C70.092 41.512 68.82 42.472 66.54 42.472H64.236ZM76.7554 52H80.2834V38.56H76.7554V52ZM78.5314 36.4C79.7314 36.4 80.5714 35.632 80.5714 34.456C80.5714 33.304 79.7314 32.536 78.5314 32.536C77.3074 32.536 76.4674 33.304 76.4674 34.456C76.4674 35.632 77.3074 36.4 78.5314 36.4ZM89.7564 52.336C91.2444 52.336 92.8764 51.832 94.1724 50.704L92.7564 48.376C92.0124 49 91.1004 49.456 90.1404 49.456C88.2204 49.456 86.8044 47.824 86.8044 45.28C86.8044 42.76 88.1964 41.104 90.2604 41.104C91.0044 41.104 91.6284 41.416 92.3004 41.992L93.9804 39.712C92.9964 38.872 91.7244 38.224 90.0684 38.224C86.4204 38.224 83.2044 40.816 83.2044 45.28C83.2044 49.744 86.0364 52.336 89.7564 52.336ZM96.7007 52H100.229V42.76C101.213 41.776 101.909 41.248 103.013 41.248C104.333 41.248 104.909 41.968 104.909 44.056V52H108.437V43.624C108.437 40.24 107.189 38.224 104.285 38.224C102.461 38.224 101.141 39.184 100.061 40.192L100.229 37.672V32.848H96.7007V52ZM111.332 46.384H117.884V43.864H111.332V46.384ZM121.223 52H131.999V49.024H124.775V34.216H121.223V52ZM134.81 52H138.338V38.56H134.81V52ZM136.586 36.4C137.786 36.4 138.626 35.632 138.626 34.456C138.626 33.304 137.786 32.536 136.586 32.536C135.362 32.536 134.522 33.304 134.522 34.456C134.522 35.632 135.362 36.4 136.586 36.4ZM142.699 52H146.227V41.344H148.747V38.56H146.227V37.408C146.227 35.92 146.803 35.296 147.859 35.296C148.291 35.296 148.819 35.392 149.275 35.584L149.923 32.968C149.323 32.752 148.411 32.512 147.379 32.512C143.995 32.512 142.699 34.672 142.699 37.48V38.584L140.899 38.728V41.344H142.699V52ZM156.604 52.336C158.26 52.336 159.964 51.76 161.284 50.848L160.084 48.688C159.124 49.288 158.164 49.624 157.06 49.624C155.068 49.624 153.628 48.472 153.34 46.264H161.62C161.716 45.952 161.788 45.304 161.788 44.632C161.788 40.936 159.868 38.224 156.172 38.224C152.98 38.224 149.908 40.936 149.908 45.28C149.908 49.72 152.836 52.336 156.604 52.336ZM153.292 43.912C153.556 41.968 154.804 40.96 156.22 40.96C157.948 40.96 158.764 42.112 158.764 43.912H153.292ZM185.045 43.552C185.045 38.32 181.301 34.192 175.349 34.192C169.133 34.192 164.333 38.92 164.333 44.464C164.333 48.52 166.541 51.448 169.205 51.448C171.821 51.448 173.885 48.472 175.325 43.624C176.021 41.368 176.429 39.16 176.765 37.12C180.005 37.672 181.805 40.144 181.805 43.456C181.805 46.96 179.405 49.168 176.333 49.888C175.685 50.032 175.013 50.176 174.101 50.272L175.901 53.128C181.949 52.192 185.045 48.616 185.045 43.552ZM167.405 44.152C167.405 41.512 169.541 38.008 173.501 37.192C173.237 39.184 172.781 41.224 172.229 43C171.245 46.24 170.309 47.752 169.301 47.752C168.365 47.752 167.405 46.576 167.405 44.152ZM191.477 36.16H206.093V38.92H209.021V33.568H200.237V31.696H197.309V33.568H188.669V38.92H191.477V36.16ZM206.789 40.264C205.925 41.08 204.653 42.064 203.453 42.88C203.069 41.992 202.733 41.056 202.469 40.096H205.205V37.696H192.317V40.096H195.821C193.709 41.176 191.045 42.016 188.477 42.52C188.933 43.072 189.653 44.2 189.941 44.752C191.837 44.248 193.805 43.552 195.629 42.712C195.845 42.904 196.037 43.096 196.229 43.288C194.429 44.512 191.237 45.832 188.813 46.408C189.341 46.96 189.941 47.944 190.253 48.568C192.533 47.776 195.485 46.336 197.525 44.968C197.693 45.232 197.837 45.52 197.981 45.808C195.605 47.824 191.429 49.792 187.973 50.656C188.501 51.28 189.125 52.312 189.461 53.032C192.461 52 196.013 50.2 198.629 48.28C198.725 49.552 198.389 50.536 197.837 50.968C197.453 51.4 196.997 51.472 196.397 51.472C195.773 51.472 195.005 51.424 194.093 51.352C194.621 52.144 194.861 53.296 194.909 54.088C195.605 54.136 196.349 54.16 196.949 54.136C198.197 54.136 198.989 53.896 199.877 53.128C202.253 51.4 202.421 45.424 197.909 41.488C198.629 41.056 199.301 40.6 199.901 40.096H199.949C201.317 45.688 203.693 50.104 207.965 52.384C208.421 51.592 209.333 50.464 209.957 49.912C207.701 48.904 205.925 47.2 204.605 45.088C205.997 44.296 207.653 43.216 209.021 42.184L206.789 40.264ZM227.261 36.136H218.333V34.696H227.261V36.136ZM227.261 39.568H218.333V38.128H227.261V39.568ZM227.261 43.024H218.333V41.584H227.261V43.024ZM230.213 32.536H215.525V45.184H230.213V32.536ZM233.477 48.928V46.288H212.141V48.928H219.053C217.421 49.96 214.325 51.208 211.877 51.88C212.501 52.48 213.365 53.44 213.845 54.064C216.293 53.344 219.437 52.048 221.573 50.824L219.125 48.928H233.477ZM224.045 50.944C226.637 51.88 229.373 53.176 230.933 54.088L233.813 52.144C232.013 51.256 228.917 49.984 226.253 49.048L224.045 50.944ZM246.797 39.808C245.117 39.808 243.725 41.2 243.725 42.88C243.725 44.56 245.117 45.952 246.797 45.952C248.477 45.952 249.869 44.56 249.869 42.88C249.869 41.2 248.477 39.808 246.797 39.808ZM263.477 36.16H278.093V38.92H281.021V33.568H272.237V31.696H269.309V33.568H260.669V38.92H263.477V36.16ZM278.789 40.264C277.925 41.08 276.653 42.064 275.453 42.88C275.069 41.992 274.733 41.056 274.469 40.096H277.205V37.696H264.317V40.096H267.821C265.709 41.176 263.045 42.016 260.477 42.52C260.933 43.072 261.653 44.2 261.941 44.752C263.837 44.248 265.805 43.552 267.629 42.712C267.845 42.904 268.037 43.096 268.229 43.288C266.429 44.512 263.237 45.832 260.813 46.408C261.341 46.96 261.941 47.944 262.253 48.568C264.533 47.776 267.485 46.336 269.525 44.968C269.693 45.232 269.837 45.52 269.981 45.808C267.605 47.824 263.429 49.792 259.973 50.656C260.501 51.28 261.125 52.312 261.461 53.032C264.461 52 268.013 50.2 270.629 48.28C270.725 49.552 270.389 50.536 269.837 50.968C269.453 51.4 268.997 51.472 268.397 51.472C267.773 51.472 267.005 51.424 266.093 51.352C266.621 52.144 266.861 53.296 266.909 54.088C267.605 54.136 268.349 54.16 268.949 54.136C270.197 54.136 270.989 53.896 271.877 53.128C274.253 51.4 274.421 45.424 269.909 41.488C270.629 41.056 271.301 40.6 271.901 40.096H271.949C273.317 45.688 275.693 50.104 279.965 52.384C280.421 51.592 281.333 50.464 281.957 49.912C279.701 48.904 277.925 47.2 276.605 45.088C277.997 44.296 279.653 43.216 281.021 42.184L278.789 40.264ZM286.805 37.432H293.333V42.424H296.117V37.432H302.717V40.408H305.357V35.536H296.117V34.624H303.605V32.512H285.917V34.624H293.333V35.536H284.285V40.408H286.805V37.432ZM297.029 42.184H302.261V40.624H297.029V42.184ZM297.029 38.248V39.784H301.709V38.248H297.029ZM292.469 38.248H287.741V39.784H292.469V38.248ZM287.285 42.184H292.469V40.624H287.285V42.184ZM289.205 48.808V47.776H293.189V48.808H289.205ZM293.189 44.992V46.048H289.205V44.992H293.189ZM300.269 46.048H295.925V44.992H300.269V46.048ZM295.925 48.808V47.776H300.269V48.808H295.925ZM297.653 51.832C296.189 51.832 295.925 51.688 295.925 50.8V50.728H303.101V43.072H286.493V51.784H289.205V50.728H293.189V50.8C293.189 53.32 294.101 54.016 297.389 54.016H302.429C305.045 54.016 305.813 53.224 306.149 50.344C305.429 50.2 304.349 49.84 303.773 49.432C303.605 51.472 303.389 51.832 302.189 51.832H297.653ZM311.477 51.04L313.757 53.008C314.309 52.648 314.837 52.48 315.173 52.36C320.837 50.512 325.805 47.656 329.093 43.72L327.389 41.008C324.317 44.752 318.965 47.824 315.053 48.952V36.472C315.053 35.536 315.149 34.672 315.293 33.736H311.525C311.669 34.432 311.789 35.56 311.789 36.472V49.48C311.789 50.032 311.765 50.44 311.477 51.04ZM336.581 33.76L334.325 36.16C336.077 37.384 339.077 40 340.325 41.344L342.773 38.848C341.381 37.384 338.261 34.888 336.581 33.76ZM333.581 49.744L335.597 52.912C338.981 52.336 342.077 50.992 344.501 49.528C348.365 47.2 351.557 43.888 353.381 40.648L351.509 37.264C349.997 40.504 346.877 44.176 342.773 46.6C340.445 47.992 337.325 49.216 333.581 49.744ZM368.453 32.992L364.973 31.912C364.757 32.728 364.253 33.832 363.869 34.408C362.669 36.496 360.437 39.784 356.237 42.4L358.829 44.392C361.253 42.712 363.485 40.408 365.165 38.176H372.029C371.669 39.664 370.637 41.752 369.389 43.48C367.877 42.472 366.365 41.488 365.093 40.768L362.957 42.952C364.181 43.72 365.765 44.8 367.325 45.952C365.333 47.944 362.669 49.888 358.517 51.16L361.301 53.584C365.045 52.168 367.781 50.128 369.893 47.896C370.877 48.688 371.765 49.432 372.413 50.032L374.693 47.32C373.997 46.744 373.061 46.048 372.029 45.304C373.733 42.904 374.933 40.336 375.581 38.392C375.797 37.792 376.109 37.144 376.373 36.688L373.925 35.176C373.397 35.344 372.581 35.44 371.837 35.44H366.965C367.253 34.912 367.853 33.832 368.453 32.992ZM390.869 51.472L392.885 53.128C393.101 52.936 393.389 52.696 393.917 52.408C396.605 51.04 400.061 48.448 402.053 45.856L400.205 43.216C398.597 45.544 396.221 47.44 394.277 48.28V35.728C394.277 34.648 394.421 33.712 394.445 33.64H390.869C390.893 33.712 391.061 34.624 391.061 35.704V49.696C391.061 50.344 390.965 51.016 390.869 51.472ZM379.757 51.112L382.685 53.056C384.725 51.232 386.237 48.88 386.957 46.168C387.605 43.744 387.677 38.68 387.677 35.848C387.677 34.84 387.821 33.784 387.845 33.664H384.317C384.461 34.264 384.533 34.912 384.533 35.872C384.533 38.776 384.509 43.312 383.837 45.376C383.165 47.416 381.869 49.624 379.757 51.112ZM420.749 41.392V40.6H422.525C423.797 40.6 424.637 40.624 425.165 40.672V37.48C424.517 37.6 423.797 37.648 422.525 37.648H420.749V35.128C420.749 34.168 420.845 33.376 420.917 32.896H417.485C417.557 33.376 417.629 34.168 417.629 35.128V37.648H411.941V35.272C411.941 34.336 412.013 33.568 412.085 33.112H408.677C408.749 33.832 408.821 34.576 408.821 35.272V37.648H406.781C405.581 37.648 404.597 37.504 404.189 37.432V40.696C404.717 40.648 405.581 40.6 406.781 40.6H408.821V43.864C408.821 44.944 408.749 45.904 408.677 46.384H412.037C412.013 45.904 411.941 44.92 411.941 43.864V40.6H417.629V41.512C417.629 47.416 415.589 49.48 410.957 51.088L413.525 53.512C419.309 50.968 420.749 47.344 420.749 41.392ZM429.005 40.888V44.656C429.893 44.584 431.501 44.536 432.869 44.536H445.757C446.765 44.536 447.989 44.632 448.565 44.656V40.888C447.941 40.936 446.885 41.032 445.757 41.032H432.869C431.621 41.032 429.869 40.96 429.005 40.888ZM468.509 32.56L466.613 33.328C467.261 34.264 468.005 35.68 468.485 36.664L470.429 35.848C469.973 34.96 469.109 33.448 468.509 32.56ZM471.341 31.48L469.445 32.248C470.117 33.16 470.885 34.552 471.389 35.56L473.285 34.744C472.877 33.904 471.989 32.368 471.341 31.48ZM458.165 33.592H454.613C454.733 34.312 454.805 35.56 454.805 36.088V49.168C454.805 51.232 456.005 52.384 458.093 52.768C459.125 52.936 460.565 53.032 462.125 53.032C464.765 53.032 468.413 52.864 470.669 52.528V49.024C468.701 49.552 464.813 49.864 462.317 49.864C461.237 49.864 460.253 49.816 459.533 49.72C458.453 49.504 457.973 49.24 457.973 48.208V43.768C461.093 43 464.957 41.8 467.381 40.84C468.173 40.552 469.253 40.096 470.189 39.712L468.893 36.664C467.957 37.24 467.141 37.624 466.277 37.96C464.141 38.872 460.805 39.928 457.973 40.624V36.088C457.973 35.416 458.045 34.312 458.165 33.592ZM494.813 35.728L492.845 34.264C492.365 34.432 491.405 34.576 490.373 34.576H481.901C481.181 34.576 479.717 34.504 479.069 34.408V37.816C479.573 37.792 480.893 37.648 481.901 37.648H490.037C489.509 39.352 488.045 41.728 486.461 43.528C484.205 46.048 480.485 48.976 476.621 50.416L479.093 53.008C482.381 51.448 485.573 48.952 488.117 46.264C490.373 48.448 492.605 50.896 494.165 53.056L496.901 50.68C495.485 48.952 492.581 45.88 490.205 43.816C491.813 41.656 493.157 39.088 493.973 37.216C494.189 36.736 494.621 35.992 494.813 35.728ZM510.173 48.88C510.173 47.968 511.085 47.392 512.453 47.392C513.101 47.392 513.749 47.488 514.373 47.656C514.373 47.824 514.373 47.968 514.373 48.088C514.373 49.504 513.869 50.272 512.405 50.272C511.133 50.272 510.173 49.864 510.173 48.88ZM517.301 33.208H513.869C513.965 33.688 514.037 34.432 514.037 34.792C514.037 35.296 514.061 36.28 514.061 37.456C513.509 37.48 512.933 37.48 512.381 37.48C510.941 37.48 509.549 37.408 508.181 37.264V40.12C509.597 40.216 510.965 40.264 512.381 40.264C512.933 40.264 513.509 40.264 514.085 40.24C514.109 41.944 514.205 43.696 514.253 45.184C513.773 45.112 513.245 45.088 512.693 45.088C509.429 45.088 507.365 46.768 507.365 49.192C507.365 51.712 509.429 53.104 512.741 53.104C515.981 53.104 517.277 51.472 517.421 49.168C518.381 49.816 519.341 50.656 520.349 51.592L522.005 49.072C520.853 48.016 519.341 46.792 517.349 45.976C517.253 44.344 517.133 42.424 517.085 40.096C518.405 40 519.653 39.856 520.805 39.688V36.688C519.653 36.928 518.405 37.12 517.085 37.24C517.109 36.184 517.133 35.296 517.157 34.768C517.181 34.24 517.229 33.664 517.301 33.208ZM505.589 33.472L502.277 33.184C502.253 33.952 502.133 34.864 502.037 35.536C501.773 37.384 501.053 41.92 501.053 45.544C501.053 48.808 501.509 51.544 502.013 53.224L504.725 53.008C504.701 52.672 504.677 52.264 504.677 52.024C504.677 51.76 504.725 51.232 504.797 50.896C505.085 49.6 505.853 47.152 506.525 45.184L505.061 43.984C504.701 44.8 504.293 45.616 503.981 46.456C503.909 45.976 503.885 45.376 503.885 44.896C503.885 42.496 504.677 37.216 505.037 35.608C505.109 35.176 505.397 33.952 505.589 33.472ZM528.677 33.64L528.821 36.712C529.589 36.616 530.381 36.544 530.981 36.496C531.965 36.4 534.917 36.256 535.901 36.184C534.413 37.504 531.293 40.24 529.157 41.632C527.885 41.776 526.205 41.992 524.933 42.112L525.221 45.016C527.621 44.608 530.309 44.248 532.517 44.056C531.605 44.896 530.765 46.384 530.765 47.848C530.765 51.856 534.341 53.704 540.485 53.44L541.133 50.296C540.221 50.368 538.805 50.368 537.461 50.224C535.325 49.984 533.837 49.24 533.837 47.344C533.837 45.376 535.661 43.816 537.869 43.528C539.333 43.312 541.733 43.336 544.037 43.456V40.624C541.109 40.624 537.125 40.888 533.909 41.2C535.565 39.928 537.917 37.936 539.621 36.568C540.125 36.16 541.013 35.584 541.517 35.248L539.621 33.04C539.285 33.16 538.733 33.256 537.965 33.352C536.501 33.496 531.989 33.712 530.957 33.712C530.141 33.712 529.445 33.688 528.677 33.64ZM560.645 34.168L557.237 32.8C556.829 33.808 556.373 34.6 556.061 35.248C554.789 37.528 549.869 47.32 548.093 52.12L551.477 53.272C551.837 52 552.677 49.312 553.301 47.92C554.165 45.976 555.509 44.296 557.141 44.296C558.005 44.296 558.485 44.8 558.557 45.64C558.629 46.624 558.605 48.592 558.701 49.864C558.797 51.616 560.045 53.2 562.709 53.2C566.381 53.2 568.613 50.464 569.861 46.36L567.269 44.248C566.573 47.224 565.301 49.912 563.213 49.912C562.421 49.912 561.749 49.552 561.653 48.616C561.533 47.608 561.605 45.688 561.557 44.608C561.461 42.616 560.381 41.488 558.581 41.488C557.669 41.488 556.709 41.704 555.821 42.208C557.021 40.096 558.701 37.024 559.877 35.296C560.141 34.912 560.405 34.504 560.645 34.168ZM582.125 32.68L578.813 32.344C578.765 33.592 578.501 35.032 578.165 36.352C577.421 36.424 576.701 36.448 575.981 36.448C575.093 36.448 573.821 36.4 572.789 36.28L573.005 39.064C574.037 39.136 575.021 39.16 576.005 39.16C576.413 39.16 576.821 39.16 577.253 39.136C576.197 41.728 574.253 45.256 572.357 47.608L575.261 49.096C577.205 46.384 579.245 42.184 580.397 38.824C582.005 38.584 583.493 38.272 584.597 37.984L584.501 35.2C583.565 35.488 582.437 35.752 581.261 35.968C581.621 34.672 581.933 33.448 582.125 32.68ZM580.877 49.288C580.877 48.448 581.765 47.824 583.157 47.824C583.829 47.824 584.477 47.92 585.101 48.064C585.101 48.256 585.101 48.4 585.101 48.544C585.101 49.864 584.597 50.776 582.941 50.776C581.621 50.776 580.877 50.176 580.877 49.288ZM587.741 40.144H584.741C584.789 41.608 584.909 43.744 585.005 45.52C584.453 45.472 583.925 45.424 583.349 45.424C580.013 45.424 578.045 47.224 578.045 49.576C578.045 52.216 580.397 53.536 583.373 53.536C586.781 53.536 588.005 51.808 588.005 49.576C588.005 49.504 588.005 49.408 588.005 49.336C589.325 50.128 590.405 51.136 591.245 51.904L592.853 49.336C591.629 48.232 589.949 47.032 587.885 46.264C587.837 45.064 587.765 43.912 587.741 43.216C587.717 42.16 587.669 41.152 587.741 40.144ZM591.869 41.416L593.573 38.896C592.349 38.008 589.373 36.376 587.645 35.632L586.109 38.008C587.741 38.752 590.477 40.312 591.869 41.416ZM603.413 46.6C602.645 46.864 601.853 47.104 601.061 47.344V42.544H603.221V39.928H601.061V35.704H603.629V33.04H595.709V35.704H598.349V39.928H595.925V42.544H598.349V48.184C597.245 48.496 596.261 48.76 595.421 48.976L596.069 51.88C598.373 51.136 601.253 50.224 603.893 49.288L603.413 46.6ZM607.109 39.352H609.581V41.416H607.109V39.352ZM607.109 35.104H609.581V37.12H607.109V35.104ZM614.357 37.12H611.981V35.104H614.357V37.12ZM614.357 41.416H611.981V39.352H614.357V41.416ZM612.245 50.752V48.472H617.333V45.904H612.245V43.84H617.069V32.68H604.541V43.84H609.341V45.904H604.373V48.472H609.341V50.752H602.717V53.344H618.149V50.752H612.245ZM633.581 42.112H637.997V43.552H633.581V42.112ZM633.581 38.632H637.997V40.024H633.581V38.632ZM633.581 35.128H637.997V36.52H633.581V35.128ZM628.541 46.72C629.621 47.728 631.037 49.192 631.709 50.056L633.773 48.328C633.197 47.656 632.165 46.648 631.229 45.784H640.733V32.872H630.989V45.568L630.509 45.136L628.541 46.72ZM623.957 46.072H626.669V41.056C627.533 41.848 628.421 42.712 628.973 43.312L630.461 41.032C629.909 40.576 627.629 38.944 626.669 38.392V37.504H630.053V35.08H626.669V31.696H623.957V35.08H620.021V37.504H623.501C622.565 39.592 621.005 41.68 619.421 42.856C619.997 43.312 620.837 44.2 621.245 44.824C622.229 43.96 623.141 42.76 623.957 41.344V46.072ZM622.205 52.768C623.045 51.376 623.741 49.24 624.221 47.536L621.677 46.528C621.269 48.232 620.453 50.2 619.589 51.472L622.205 52.768ZM629.453 51.088C628.157 51.088 627.917 50.992 627.917 50.272V47.032H625.085V50.32C625.085 52.816 625.925 53.608 629.189 53.608H633.509C636.149 53.608 636.941 52.768 637.301 49.336C636.509 49.192 635.309 48.784 634.733 48.328C634.589 50.752 634.421 51.088 633.293 51.088H629.453ZM636.629 47.368C637.565 48.976 638.885 51.088 639.461 52.36L642.125 50.992C641.477 49.744 640.085 47.704 639.125 46.216L636.629 47.368ZM665.045 43.552C665.045 38.32 661.301 34.192 655.349 34.192C649.133 34.192 644.333 38.92 644.333 44.464C644.333 48.52 646.541 51.448 649.205 51.448C651.821 51.448 653.885 48.472 655.325 43.624C656.021 41.368 656.429 39.16 656.765 37.12C660.005 37.672 661.805 40.144 661.805 43.456C661.805 46.96 659.405 49.168 656.333 49.888C655.685 50.032 655.013 50.176 654.101 50.272L655.901 53.128C661.949 52.192 665.045 48.616 665.045 43.552ZM647.405 44.152C647.405 41.512 649.541 38.008 653.501 37.192C653.237 39.184 652.781 41.224 652.229 43C651.245 46.24 650.309 47.752 649.301 47.752C648.365 47.752 647.405 46.576 647.405 44.152ZM673.469 35.872H676.229V35.128H681.269V35.872H684.077V35.128H689.549V32.872H684.077V31.672H681.269V32.872H676.229V31.672H673.469V32.872H668.117V35.128H673.469V35.872ZM674.813 46.792C675.101 46.48 675.389 46.192 675.677 45.856H682.085C682.349 46.192 682.637 46.48 682.925 46.792H674.813ZM674.597 51.712V50.824H683.069V51.712H674.597ZM683.069 49.384H674.597V48.52H683.069V49.384ZM673.469 40.288H684.053V41.2H673.469V40.288ZM673.469 37.84H684.053V38.752H673.469V37.84ZM689.717 45.856V43.696H677.165C677.333 43.408 677.453 43.12 677.597 42.832H686.885V36.208H670.781V42.832H674.645C674.501 43.12 674.333 43.408 674.141 43.696H667.949V45.856H672.101C670.901 46.816 669.365 47.656 667.373 48.328C667.901 48.784 668.645 49.744 668.933 50.416C669.989 50.008 670.925 49.552 671.789 49.048V54.112H674.597V53.44H683.069V54.112H686.021V49.048C686.861 49.48 687.725 49.84 688.637 50.104C688.997 49.456 689.717 48.472 690.293 47.992C688.397 47.56 686.573 46.816 685.181 45.856H689.717ZM698.813 32.68L698.045 35.56C699.917 36.04 705.269 37.168 707.693 37.48L708.413 34.552C706.325 34.312 701.093 33.4 698.813 32.68ZM698.957 37.504L695.741 37.048C695.573 40.024 695.021 44.728 694.541 47.08L697.301 47.776C697.517 47.296 697.757 46.912 698.189 46.384C699.701 44.56 702.149 43.552 704.861 43.552C706.949 43.552 708.437 44.704 708.437 46.264C708.437 49.312 704.621 51.064 697.421 50.08L698.333 53.224C708.317 54.064 711.773 50.704 711.773 46.336C711.773 43.432 709.325 40.84 705.125 40.84C702.605 40.84 700.229 41.536 698.045 43.12C698.213 41.752 698.645 38.824 698.957 37.504ZM723.701 32.968L719.837 32.92C720.053 33.88 720.149 35.032 720.149 36.16C720.149 38.224 719.909 44.536 719.909 47.752C719.909 51.856 722.453 53.584 726.389 53.584C731.861 53.584 735.269 50.368 736.805 48.064L734.621 45.424C732.893 48.04 730.373 50.32 726.413 50.32C724.541 50.32 723.101 49.528 723.101 47.104C723.101 44.128 723.293 38.752 723.389 36.16C723.437 35.2 723.557 33.976 723.701 32.968ZM750.461 32.752L747.293 32.488C747.245 33.352 747.077 34.288 746.813 35.248C746.429 35.248 746.021 35.248 745.661 35.248C744.437 35.248 742.661 35.152 741.437 34.96V37.768C742.757 37.864 744.509 37.912 745.493 37.912C745.589 37.912 745.685 37.912 745.805 37.912C744.725 40.072 743.021 42.208 740.501 44.536L743.069 46.456C743.885 45.4 744.581 44.536 745.301 43.816C746.213 42.928 747.701 42.16 749.045 42.16C749.717 42.16 750.365 42.376 750.725 42.976C747.989 44.392 745.109 46.312 745.109 49.384C745.109 52.48 747.893 53.392 751.661 53.392C753.917 53.392 756.869 53.2 758.453 52.984L758.549 49.888C756.437 50.296 753.773 50.56 751.733 50.56C749.381 50.56 748.253 50.2 748.253 48.88C748.253 47.68 749.213 46.744 751.013 45.712C750.989 46.768 750.965 47.92 750.893 48.64H753.773C753.749 47.536 753.701 45.76 753.677 44.416C755.141 43.744 756.509 43.216 757.589 42.784C758.405 42.472 759.677 41.992 760.445 41.776L759.245 38.992C758.357 39.448 757.517 39.832 756.581 40.24C755.597 40.672 754.589 41.08 753.341 41.656C752.813 40.432 751.613 39.808 750.149 39.808C749.357 39.808 748.061 40 747.437 40.288C747.917 39.592 748.397 38.728 748.805 37.84C751.397 37.768 754.349 37.576 756.629 37.24L756.653 34.456C754.541 34.816 752.141 35.032 749.861 35.152C750.173 34.144 750.341 33.352 750.461 32.752ZM769.517 44.968L766.349 44.68C766.181 45.592 765.893 46.744 765.893 48.136C765.893 51.448 768.653 53.296 774.149 53.296C777.509 53.296 780.389 52.96 782.477 52.456L782.453 49.096C780.341 49.672 777.269 50.032 774.029 50.032C770.573 50.032 769.109 48.952 769.109 47.392C769.109 46.6 769.277 45.832 769.517 44.968ZM781.613 32.32L779.717 33.088C780.053 33.568 780.413 34.168 780.749 34.792C778.901 34.96 776.309 35.104 774.029 35.104C771.509 35.104 769.277 35.008 767.501 34.792V37.984C769.445 38.128 771.533 38.248 774.053 38.248C776.333 38.248 779.309 38.08 780.989 37.96V35.272C781.205 35.68 781.421 36.088 781.589 36.448L783.533 35.608C783.077 34.72 782.213 33.184 781.613 32.32ZM784.469 31.24L782.549 32.008C783.221 32.92 783.989 34.312 784.493 35.32L786.413 34.504C785.981 33.664 785.093 32.128 784.469 31.24ZM805.685 35.632H799.205V34.432H805.685V35.632ZM805.685 38.68H799.205V37.456H805.685V38.68ZM808.421 32.416H796.589V40.696H808.421V32.416ZM795.389 44.392L795.005 41.824L792.845 42.4V38.848H795.245V36.208H792.845V31.672H790.253V36.208H787.661V38.848H790.253V43.096C789.173 43.36 788.213 43.624 787.397 43.792L788.045 46.552C788.741 46.36 789.461 46.144 790.253 45.928V50.728C790.253 51.04 790.133 51.136 789.845 51.136C789.557 51.16 788.741 51.16 787.853 51.136C788.213 51.88 788.525 53.056 788.597 53.752C790.133 53.776 791.189 53.68 791.909 53.2C792.629 52.768 792.845 52.072 792.845 50.752V45.16L795.389 44.392ZM803.765 48.448H808.349V46.216H803.765V44.104H809.621V41.8H795.437V44.104H801.077V50.368C800.213 49.816 799.517 48.952 798.989 47.56C799.181 46.816 799.325 46 799.445 45.136L796.853 44.824C796.493 48.088 795.509 50.752 793.517 52.336C794.093 52.696 795.173 53.584 795.629 54.04C796.661 53.056 797.525 51.784 798.125 50.272C799.757 53.176 802.181 53.752 805.325 53.752H809.501C809.597 53.032 809.933 51.832 810.269 51.256C809.237 51.28 806.261 51.28 805.445 51.28C804.845 51.28 804.317 51.256 803.765 51.208V48.448ZM816.677 31.72C815.477 35.152 813.365 38.536 811.205 40.696C811.709 41.392 812.477 42.952 812.741 43.672C813.245 43.12 813.749 42.544 814.253 41.896V54.064H817.061V37.552C817.925 35.92 818.717 34.216 819.341 32.56L816.677 31.72ZM822.269 47.632C821.285 49.336 819.605 51.088 817.925 52.216C818.549 52.6 819.629 53.488 820.157 54.016C821.813 52.648 823.733 50.536 824.933 48.448L822.269 47.632ZM827.501 48.856C829.013 50.416 830.693 52.624 831.461 54.064L833.861 52.552C832.997 51.16 831.341 49.12 829.781 47.608L827.501 48.856ZM824.405 39.088H827.885V43.864H824.405V39.088ZM830.669 43.864V39.088H833.789V36.352H830.669V31.84H827.885V36.352H824.405V31.864H821.621V36.352H819.005V39.088H821.621V43.864H818.405V46.648H833.981V43.864H830.669ZM841.037 34.84L837.341 34.792C837.485 35.536 837.533 36.568 837.533 37.24C837.533 38.704 837.557 41.512 837.797 43.72C838.469 50.152 840.749 52.528 843.389 52.528C845.309 52.528 846.821 51.064 848.405 46.888L846.005 43.96C845.549 45.88 844.589 48.688 843.461 48.688C841.949 48.688 841.229 46.312 840.893 42.856C840.749 41.128 840.725 39.328 840.749 37.768C840.749 37.096 840.869 35.704 841.037 34.84ZM853.037 35.392L849.989 36.376C852.605 39.352 853.877 45.184 854.261 49.048L857.405 47.824C857.141 44.152 855.317 38.152 853.037 35.392ZM872.885 46.144L870.029 45.856C869.837 46.816 869.597 47.968 869.597 49.072C869.597 51.496 871.781 52.888 875.813 52.888C877.733 52.888 879.365 52.72 880.709 52.552L880.829 49.48C879.101 49.792 877.445 49.984 875.837 49.984C873.269 49.984 872.549 49.192 872.549 48.136C872.549 47.608 872.693 46.816 872.885 46.144ZM870.173 32.848L866.501 32.56C866.573 33.112 866.525 34.096 866.429 34.984C866.381 35.368 866.309 35.824 866.213 36.352C865.469 36.4 864.749 36.424 864.053 36.424C863.069 36.424 862.253 36.376 861.029 36.232L861.101 39.232C861.941 39.28 862.853 39.328 864.005 39.328C864.509 39.328 865.037 39.304 865.589 39.28C865.445 39.976 865.253 40.648 865.085 41.296C864.197 44.656 862.373 49.696 860.933 52.096L864.269 53.224C865.613 50.368 867.221 45.472 868.085 42.112C868.349 41.128 868.589 40.072 868.805 39.04C870.413 38.848 872.045 38.584 873.485 38.248V35.248C872.165 35.56 870.821 35.824 869.477 36.016C869.549 35.68 869.621 35.368 869.669 35.104C869.765 34.576 869.981 33.496 870.173 32.848ZM871.589 40.096V42.904C873.101 42.736 874.589 42.664 876.221 42.664C877.685 42.664 879.149 42.808 880.349 42.952L880.421 40.072C879.005 39.928 877.565 39.856 876.197 39.856C874.661 39.856 872.933 39.976 871.589 40.096ZM891.701 32.968L887.837 32.92C888.053 33.88 888.149 35.032 888.149 36.16C888.149 38.224 887.909 44.536 887.909 47.752C887.909 51.856 890.453 53.584 894.389 53.584C899.861 53.584 903.269 50.368 904.805 48.064L902.621 45.424C900.893 48.04 898.373 50.32 894.413 50.32C892.541 50.32 891.101 49.528 891.101 47.104C891.101 44.128 891.293 38.752 891.389 36.16C891.437 35.2 891.557 33.976 891.701 32.968ZM913.613 49.288C913.613 48.472 914.549 47.8 916.253 47.8C916.925 47.8 917.573 47.872 918.221 47.968C918.245 48.4 918.245 48.736 918.245 49C918.245 50.392 917.405 50.752 916.133 50.752C914.477 50.752 913.613 50.2 913.613 49.288ZM921.125 32.584H917.885C917.981 33.04 918.029 33.784 918.029 34.24C918.029 34.528 918.029 34.912 918.029 35.368C917.717 35.368 917.405 35.368 917.093 35.368C915.629 35.368 912.893 35.128 911.165 34.84L911.237 37.576C912.821 37.792 915.605 38.008 917.117 38.008C917.405 38.008 917.693 38.008 918.005 38.008C917.981 38.824 917.981 39.688 917.981 40.48C917.597 40.48 917.213 40.48 916.829 40.48C915.557 40.48 912.605 40.312 911.045 40.024L911.069 42.856C912.653 43.048 915.389 43.168 916.781 43.168C917.213 43.168 917.621 43.168 918.029 43.168C918.053 43.888 918.077 44.656 918.125 45.4C917.645 45.352 917.141 45.328 916.637 45.328C912.941 45.328 910.709 47.032 910.709 49.456C910.709 52 912.725 53.464 916.565 53.464C919.733 53.464 921.293 51.88 921.293 49.84C921.293 49.576 921.293 49.288 921.269 48.952C923.189 49.816 924.821 51.088 926.117 52.288L927.845 49.6C926.453 48.448 924.149 46.84 921.125 45.976C921.053 45.016 921.005 44.032 920.957 43.12C923.261 43.048 925.133 42.88 927.293 42.64L927.317 39.808C925.373 40.072 923.333 40.264 920.909 40.384C920.909 39.64 920.909 38.752 920.909 37.912C923.237 37.792 925.421 37.576 927.005 37.384L927.029 34.624C924.917 34.984 922.925 35.176 920.957 35.272C920.957 34.888 920.957 34.528 920.981 34.288C921.005 33.664 921.053 33.064 921.125 32.584ZM946.469 32.656H942.989C943.061 32.944 943.157 33.76 943.229 34.744C943.253 34.936 943.253 35.176 943.277 35.488C940.013 35.536 935.645 35.632 932.909 35.632L932.981 38.536C935.933 38.368 939.677 38.224 943.301 38.176C943.325 38.704 943.325 39.256 943.325 39.784C943.013 39.736 942.701 39.712 942.365 39.712C939.749 39.712 937.565 41.488 937.565 44.2C937.565 47.128 939.845 48.616 941.693 48.616C942.077 48.616 942.437 48.568 942.773 48.496C941.453 49.936 939.341 50.728 936.917 51.232L939.485 53.776C945.341 52.144 947.165 48.16 947.165 45.04C947.165 43.792 946.877 42.664 946.301 41.752C946.301 40.696 946.277 39.376 946.277 38.152C949.541 38.152 951.773 38.2 953.213 38.272L953.237 35.44C951.989 35.416 948.701 35.464 946.277 35.464C946.301 35.176 946.301 34.912 946.301 34.72C946.325 34.336 946.421 33.04 946.469 32.656ZM940.445 44.152C940.445 42.88 941.357 42.232 942.293 42.232C942.941 42.232 943.517 42.52 943.853 43.072C944.189 45.184 943.301 45.952 942.293 45.952C941.333 45.952 940.445 45.256 940.445 44.152ZM957.038 46.048C954.926 46.048 953.174 47.8 953.174 49.936C953.174 52.072 954.926 53.824 957.038 53.824C959.198 53.824 960.926 52.072 960.926 49.936C960.926 47.8 959.198 46.048 957.038 46.048ZM957.038 52.096C955.886 52.096 954.902 51.136 954.902 49.936C954.902 48.736 955.886 47.776 957.038 47.776C958.238 47.776 959.198 48.736 959.198 49.936C959.198 51.136 958.238 52.096 957.038 52.096Z" fill="white"/>
<path d="M492.5 68H1V11.5H1033.5V68H557.5L535 99.5" stroke="#565956"/>
</svg>
