<svg width="353" height="119" viewBox="0 0 353 119" fill="none" xmlns="http://www.w3.org/2000/svg">
<rect x="13" width="325" height="108" fill="#669988"/>
<path d="M169.5 96.5H1V10.5H352V96.5H191L187 118" stroke="#565956"/>
<path d="M135.19 35H137.558V30.52H139.206L141.638 35H144.278L141.51 30.152C142.87 29.624 143.766 28.52 143.766 26.744C143.766 24.024 141.798 23.144 139.318 23.144H135.19V35ZM137.558 28.648V25.032H139.094C140.614 25.032 141.462 25.464 141.462 26.744C141.462 28.008 140.614 28.648 139.094 28.648H137.558ZM145.905 35H148.257V26.04H145.905V35ZM147.089 24.6C147.889 24.6 148.449 24.088 148.449 23.304C148.449 22.536 147.889 22.024 147.089 22.024C146.273 22.024 145.713 22.536 145.713 23.304C145.713 24.088 146.273 24.6 147.089 24.6ZM154.572 35.224C155.564 35.224 156.652 34.888 157.516 34.136L156.572 32.584C156.076 33 155.468 33.304 154.828 33.304C153.548 33.304 152.604 32.216 152.604 30.52C152.604 28.84 153.532 27.736 154.908 27.736C155.404 27.736 155.82 27.944 156.268 28.328L157.388 26.808C156.732 26.248 155.884 25.816 154.78 25.816C152.348 25.816 150.204 27.544 150.204 30.52C150.204 33.496 152.092 35.224 154.572 35.224ZM159.202 35H161.554V28.84C162.21 28.184 162.674 27.832 163.41 27.832C164.29 27.832 164.674 28.312 164.674 29.704V35H167.026V29.416C167.026 27.16 166.194 25.816 164.258 25.816C163.042 25.816 162.161 26.456 161.442 27.128L161.554 25.448V22.232H159.202V35ZM168.956 31.256H173.324V29.576H168.956V31.256ZM175.55 35H182.734V33.016H177.918V23.144H175.55V35ZM184.608 35H186.96V26.04H184.608V35ZM185.792 24.6C186.592 24.6 187.152 24.088 187.152 23.304C187.152 22.536 186.592 22.024 185.792 22.024C184.976 22.024 184.416 22.536 184.416 23.304C184.416 24.088 184.976 24.6 185.792 24.6ZM189.867 35H192.219V27.896H193.899V26.04H192.219V25.272C192.219 24.28 192.603 23.864 193.307 23.864C193.595 23.864 193.947 23.928 194.251 24.056L194.683 22.312C194.283 22.168 193.675 22.008 192.987 22.008C190.731 22.008 189.867 23.448 189.867 25.32V26.056L188.667 26.152V27.896H189.867V35ZM199.137 35.224C200.241 35.224 201.377 34.84 202.257 34.232L201.457 32.792C200.817 33.192 200.177 33.416 199.441 33.416C198.113 33.416 197.153 32.648 196.961 31.176H202.481C202.545 30.968 202.593 30.536 202.593 30.088C202.593 27.624 201.313 25.816 198.849 25.816C196.721 25.816 194.673 27.624 194.673 30.52C194.673 33.48 196.625 35.224 199.137 35.224ZM196.929 29.608C197.105 28.312 197.937 27.64 198.881 27.64C200.033 27.64 200.577 28.408 200.577 29.608H196.929ZM218.098 29.368C218.098 25.88 215.602 23.128 211.634 23.128C207.49 23.128 204.29 26.28 204.29 29.976C204.29 32.68 205.762 34.632 207.538 34.632C209.282 34.632 210.658 32.648 211.618 29.416C212.082 27.912 212.354 26.44 212.578 25.08C214.738 25.448 215.938 27.096 215.938 29.304C215.938 31.64 214.338 33.112 212.29 33.592C211.858 33.688 211.41 33.784 210.802 33.848L212.002 35.752C216.034 35.128 218.098 32.744 218.098 29.368ZM206.338 29.768C206.338 28.008 207.762 25.672 210.402 25.128C210.226 26.456 209.922 27.816 209.554 29C208.898 31.16 208.274 32.168 207.602 32.168C206.978 32.168 206.338 31.384 206.338 29.768ZM67.62 47.44H77.364V49.28H79.316V45.712H73.46V44.464H71.508V45.712H65.748V49.28H67.62V47.44ZM77.828 50.176C77.252 50.72 76.404 51.376 75.604 51.92C75.348 51.328 75.124 50.704 74.948 50.064H76.772V48.464H68.18V50.064H70.516C69.108 50.784 67.332 51.344 65.62 51.68C65.924 52.048 66.404 52.8 66.596 53.168C67.86 52.832 69.172 52.368 70.388 51.808C70.532 51.936 70.66 52.064 70.788 52.192C69.588 53.008 67.46 53.888 65.844 54.272C66.196 54.64 66.596 55.296 66.804 55.712C68.324 55.184 70.292 54.224 71.652 53.312C71.764 53.488 71.86 53.68 71.956 53.872C70.372 55.216 67.588 56.528 65.284 57.104C65.636 57.52 66.052 58.208 66.276 58.688C68.276 58 70.644 56.8 72.388 55.52C72.452 56.368 72.228 57.024 71.86 57.312C71.604 57.6 71.3 57.648 70.9 57.648C70.484 57.648 69.972 57.616 69.364 57.568C69.716 58.096 69.876 58.864 69.908 59.392C70.372 59.424 70.868 59.44 71.268 59.424C72.1 59.424 72.628 59.264 73.22 58.752C74.804 57.6 74.916 53.616 71.908 50.992C72.388 50.704 72.836 50.4 73.236 50.064H73.268C74.18 53.792 75.764 56.736 78.612 58.256C78.916 57.728 79.524 56.976 79.94 56.608C78.436 55.936 77.252 54.8 76.372 53.392C77.3 52.864 78.404 52.144 79.316 51.456L77.828 50.176ZM91.476 47.424H85.524V46.464H91.476V47.424ZM91.476 49.712H85.524V48.752H91.476V49.712ZM91.476 52.016H85.524V51.056H91.476V52.016ZM93.444 45.024H83.652V53.456H93.444V45.024ZM95.62 55.952V54.192H81.396V55.952H86.004C84.916 56.64 82.852 57.472 81.22 57.92C81.636 58.32 82.212 58.96 82.532 59.376C84.164 58.896 86.26 58.032 87.684 57.216L86.052 55.952H95.62ZM89.332 57.296C91.06 57.92 92.884 58.784 93.924 59.392L95.844 58.096C94.644 57.504 92.58 56.656 90.804 56.032L89.332 57.296ZM104.5 49.872C103.38 49.872 102.452 50.8 102.452 51.92C102.452 53.04 103.38 53.968 104.5 53.968C105.62 53.968 106.548 53.04 106.548 51.92C106.548 50.8 105.62 49.872 104.5 49.872ZM115.62 47.44H125.364V49.28H127.316V45.712H121.46V44.464H119.508V45.712H113.748V49.28H115.62V47.44ZM125.828 50.176C125.252 50.72 124.404 51.376 123.604 51.92C123.348 51.328 123.124 50.704 122.948 50.064H124.772V48.464H116.18V50.064H118.516C117.108 50.784 115.332 51.344 113.62 51.68C113.924 52.048 114.404 52.8 114.596 53.168C115.86 52.832 117.172 52.368 118.388 51.808C118.532 51.936 118.66 52.064 118.788 52.192C117.588 53.008 115.46 53.888 113.844 54.272C114.196 54.64 114.596 55.296 114.804 55.712C116.324 55.184 118.292 54.224 119.652 53.312C119.764 53.488 119.86 53.68 119.956 53.872C118.372 55.216 115.588 56.528 113.284 57.104C113.636 57.52 114.052 58.208 114.276 58.688C116.276 58 118.644 56.8 120.388 55.52C120.452 56.368 120.228 57.024 119.86 57.312C119.604 57.6 119.3 57.648 118.9 57.648C118.484 57.648 117.972 57.616 117.364 57.568C117.716 58.096 117.876 58.864 117.908 59.392C118.372 59.424 118.868 59.44 119.268 59.424C120.1 59.424 120.628 59.264 121.22 58.752C122.804 57.6 122.916 53.616 119.908 50.992C120.388 50.704 120.836 50.4 121.236 50.064H121.268C122.18 53.792 123.764 56.736 126.612 58.256C126.916 57.728 127.524 56.976 127.94 56.608C126.436 55.936 125.252 54.8 124.372 53.392C125.3 52.864 126.404 52.144 127.316 51.456L125.828 50.176ZM131.172 48.288H135.524V51.616H137.38V48.288H141.78V50.272H143.54V47.024H137.38V46.416H142.372V45.008H130.58V46.416H135.524V47.024H129.492V50.272H131.172V48.288ZM137.988 51.456H141.476V50.416H137.988V51.456ZM137.988 48.832V49.856H141.108V48.832H137.988ZM134.948 48.832H131.796V49.856H134.948V48.832ZM131.492 51.456H134.948V50.416H131.492V51.456ZM132.772 55.872V55.184H135.428V55.872H132.772ZM135.428 53.328V54.032H132.772V53.328H135.428ZM140.148 54.032H137.252V53.328H140.148V54.032ZM137.252 55.872V55.184H140.148V55.872H137.252ZM138.404 57.888C137.428 57.888 137.252 57.792 137.252 57.2V57.152H142.036V52.048H130.964V57.856H132.772V57.152H135.428V57.2C135.428 58.88 136.036 59.344 138.228 59.344H141.588C143.332 59.344 143.844 58.816 144.068 56.896C143.588 56.8 142.868 56.56 142.484 56.288C142.372 57.648 142.228 57.888 141.428 57.888H138.404ZM147.62 57.36L149.14 58.672C149.508 58.432 149.86 58.32 150.084 58.24C153.86 57.008 157.172 55.104 159.364 52.48L158.228 50.672C156.18 53.168 152.612 55.216 150.004 55.968V47.648C150.004 47.024 150.068 46.448 150.164 45.824H147.652C147.748 46.288 147.828 47.04 147.828 47.648V56.32C147.828 56.688 147.812 56.96 147.62 57.36ZM164.356 45.84L162.852 47.44C164.02 48.256 166.02 50 166.852 50.896L168.484 49.232C167.556 48.256 165.476 46.592 164.356 45.84ZM162.356 56.496L163.7 58.608C165.956 58.224 168.02 57.328 169.636 56.352C172.212 54.8 174.34 52.592 175.556 50.432L174.308 48.176C173.3 50.336 171.22 52.784 168.484 54.4C166.932 55.328 164.852 56.144 162.356 56.496ZM185.604 45.328L183.284 44.608C183.14 45.152 182.804 45.888 182.548 46.272C181.748 47.664 180.26 49.856 177.46 51.6L179.188 52.928C180.804 51.808 182.292 50.272 183.412 48.784H187.988C187.748 49.776 187.06 51.168 186.228 52.32C185.22 51.648 184.212 50.992 183.364 50.512L181.94 51.968C182.756 52.48 183.812 53.2 184.852 53.968C183.524 55.296 181.748 56.592 178.98 57.44L180.836 59.056C183.332 58.112 185.156 56.752 186.564 55.264C187.22 55.792 187.812 56.288 188.244 56.688L189.764 54.88C189.3 54.496 188.676 54.032 187.988 53.536C189.124 51.936 189.924 50.224 190.356 48.928C190.5 48.528 190.708 48.096 190.884 47.792L189.252 46.784C188.9 46.896 188.356 46.96 187.86 46.96H184.612C184.804 46.608 185.204 45.888 185.604 45.328ZM200.548 57.648L201.892 58.752C202.036 58.624 202.228 58.464 202.58 58.272C204.372 57.36 206.676 55.632 208.004 53.904L206.772 52.144C205.7 53.696 204.116 54.96 202.82 55.52V47.152C202.82 46.432 202.916 45.808 202.932 45.76H200.548C200.564 45.808 200.676 46.416 200.676 47.136V56.464C200.676 56.896 200.612 57.344 200.548 57.648ZM193.14 57.408L195.092 58.704C196.452 57.488 197.46 55.92 197.94 54.112C198.372 52.496 198.42 49.12 198.42 47.232C198.42 46.56 198.516 45.856 198.532 45.776H196.18C196.276 46.176 196.324 46.608 196.324 47.248C196.324 49.184 196.308 52.208 195.86 53.584C195.412 54.944 194.548 56.416 193.14 57.408ZM220.468 50.928V50.4H221.652C222.5 50.4 223.06 50.416 223.412 50.448V48.32C222.98 48.4 222.5 48.432 221.652 48.432H220.468V46.752C220.468 46.112 220.532 45.584 220.58 45.264H218.292C218.34 45.584 218.388 46.112 218.388 46.752V48.432H214.596V46.848C214.596 46.224 214.644 45.712 214.692 45.408H212.42C212.468 45.888 212.516 46.384 212.516 46.848V48.432H211.156C210.356 48.432 209.7 48.336 209.428 48.288V50.464C209.78 50.432 210.356 50.4 211.156 50.4H212.516V52.576C212.516 53.296 212.468 53.936 212.42 54.256H214.66C214.644 53.936 214.596 53.28 214.596 52.576V50.4H218.388V51.008C218.388 54.944 217.028 56.32 213.94 57.392L215.652 59.008C219.508 57.312 220.468 54.896 220.468 50.928ZM225.972 50.592V53.104C226.564 53.056 227.636 53.024 228.548 53.024H237.14C237.812 53.024 238.628 53.088 239.012 53.104V50.592C238.596 50.624 237.892 50.688 237.14 50.688H228.548C227.716 50.688 226.548 50.64 225.972 50.592ZM252.308 45.04L251.044 45.552C251.476 46.176 251.972 47.12 252.292 47.776L253.588 47.232C253.284 46.64 252.708 45.632 252.308 45.04ZM254.196 44.32L252.932 44.832C253.38 45.44 253.892 46.368 254.228 47.04L255.492 46.496C255.22 45.936 254.628 44.912 254.196 44.32ZM245.412 45.728H243.044C243.124 46.208 243.172 47.04 243.172 47.392V56.112C243.172 57.488 243.972 58.256 245.364 58.512C246.052 58.624 247.012 58.688 248.052 58.688C249.812 58.688 252.244 58.576 253.748 58.352V56.016C252.436 56.368 249.844 56.576 248.18 56.576C247.46 56.576 246.804 56.544 246.324 56.48C245.604 56.336 245.284 56.16 245.284 55.472V52.512C247.364 52 249.94 51.2 251.556 50.56C252.084 50.368 252.804 50.064 253.428 49.808L252.564 47.776C251.94 48.16 251.396 48.416 250.82 48.64C249.396 49.248 247.172 49.952 245.284 50.416V47.392C245.284 46.944 245.332 46.208 245.412 45.728ZM269.844 47.152L268.532 46.176C268.212 46.288 267.572 46.384 266.884 46.384H261.236C260.756 46.384 259.78 46.336 259.348 46.272V48.544C259.684 48.528 260.564 48.432 261.236 48.432H266.66C266.308 49.568 265.332 51.152 264.276 52.352C262.772 54.032 260.292 55.984 257.716 56.944L259.364 58.672C261.556 57.632 263.684 55.968 265.38 54.176C266.884 55.632 268.372 57.264 269.412 58.704L271.236 57.12C270.292 55.968 268.356 53.92 266.772 52.544C267.844 51.104 268.74 49.392 269.284 48.144C269.428 47.824 269.716 47.328 269.844 47.152ZM280.084 55.92C280.084 55.312 280.692 54.928 281.604 54.928C282.036 54.928 282.468 54.992 282.884 55.104C282.884 55.216 282.884 55.312 282.884 55.392C282.884 56.336 282.548 56.848 281.572 56.848C280.724 56.848 280.084 56.576 280.084 55.92ZM284.836 45.472H282.548C282.612 45.792 282.66 46.288 282.66 46.528C282.66 46.864 282.676 47.52 282.676 48.304C282.308 48.32 281.924 48.32 281.556 48.32C280.596 48.32 279.668 48.272 278.756 48.176V50.08C279.7 50.144 280.612 50.176 281.556 50.176C281.924 50.176 282.308 50.176 282.692 50.16C282.708 51.296 282.772 52.464 282.804 53.456C282.484 53.408 282.132 53.392 281.764 53.392C279.588 53.392 278.212 54.512 278.212 56.128C278.212 57.808 279.588 58.736 281.796 58.736C283.956 58.736 284.82 57.648 284.916 56.112C285.556 56.544 286.196 57.104 286.868 57.728L287.972 56.048C287.204 55.344 286.196 54.528 284.868 53.984C284.804 52.896 284.724 51.616 284.692 50.064C285.572 50 286.404 49.904 287.172 49.792V47.792C286.404 47.952 285.572 48.08 284.692 48.16C284.708 47.456 284.724 46.864 284.74 46.512C284.756 46.16 284.788 45.776 284.836 45.472ZM277.028 45.648L274.82 45.456C274.804 45.968 274.724 46.576 274.66 47.024C274.484 48.256 274.004 51.28 274.004 53.696C274.004 55.872 274.308 57.696 274.644 58.816L276.452 58.672C276.436 58.448 276.42 58.176 276.42 58.016C276.42 57.84 276.452 57.488 276.5 57.264C276.692 56.4 277.204 54.768 277.652 53.456L276.676 52.656C276.436 53.2 276.164 53.744 275.956 54.304C275.908 53.984 275.892 53.584 275.892 53.264C275.892 51.664 276.42 48.144 276.66 47.072C276.708 46.784 276.9 45.968 277.028 45.648ZM29.2169 68.76L29.3129 70.808C29.8249 70.744 30.3529 70.696 30.7529 70.664C31.4089 70.6 33.3769 70.504 34.0329 70.456C33.0409 71.336 30.9609 73.16 29.5369 74.088C28.6889 74.184 27.5689 74.328 26.7209 74.408L26.9129 76.344C28.5129 76.072 30.3049 75.832 31.7769 75.704C31.1689 76.264 30.6089 77.256 30.6089 78.232C30.6089 80.904 32.9929 82.136 37.0889 81.96L37.5209 79.864C36.9129 79.912 35.9689 79.912 35.0729 79.816C33.6489 79.656 32.6569 79.16 32.6569 77.896C32.6569 76.584 33.8729 75.544 35.3449 75.352C36.3209 75.208 37.9209 75.224 39.4569 75.304V73.416C37.5049 73.416 34.8489 73.592 32.7049 73.8C33.8089 72.952 35.3769 71.624 36.5129 70.712C36.8489 70.44 37.4409 70.056 37.7769 69.832L36.5129 68.36C36.2889 68.44 35.9209 68.504 35.4089 68.568C34.4329 68.664 31.4249 68.808 30.7369 68.808C30.1929 68.808 29.7289 68.792 29.2169 68.76ZM50.5289 69.112L48.2569 68.2C47.9849 68.872 47.6809 69.4 47.4729 69.832C46.6249 71.352 43.3449 77.88 42.1609 81.08L44.4169 81.848C44.6569 81 45.2169 79.208 45.6329 78.28C46.2089 76.984 47.1049 75.864 48.1929 75.864C48.7689 75.864 49.0889 76.2 49.1369 76.76C49.1849 77.416 49.1689 78.728 49.2329 79.576C49.2969 80.744 50.1289 81.8 51.9049 81.8C54.3529 81.8 55.8409 79.976 56.6729 77.24L54.9449 75.832C54.4809 77.816 53.6329 79.608 52.2409 79.608C51.7129 79.608 51.2649 79.368 51.2009 78.744C51.1209 78.072 51.1689 76.792 51.1369 76.072C51.0729 74.744 50.3529 73.992 49.1529 73.992C48.5449 73.992 47.9049 74.136 47.3129 74.472C48.1129 73.064 49.2329 71.016 50.0169 69.864C50.1929 69.608 50.3689 69.336 50.5289 69.112ZM64.8489 68.12L62.6409 67.896C62.6089 68.728 62.4329 69.688 62.2089 70.568C61.7129 70.616 61.2329 70.632 60.7529 70.632C60.1609 70.632 59.3129 70.6 58.6249 70.52L58.7689 72.376C59.4569 72.424 60.1129 72.44 60.7689 72.44C61.0409 72.44 61.3129 72.44 61.6009 72.424C60.8969 74.152 59.6009 76.504 58.3369 78.072L60.2729 79.064C61.5689 77.256 62.9289 74.456 63.6969 72.216C64.7689 72.056 65.7609 71.848 66.4969 71.656L66.4329 69.8C65.8089 69.992 65.0569 70.168 64.2729 70.312C64.5129 69.448 64.7209 68.632 64.8489 68.12ZM64.0169 79.192C64.0169 78.632 64.6089 78.216 65.5369 78.216C65.9849 78.216 66.4169 78.28 66.8329 78.376C66.8329 78.504 66.8329 78.6 66.8329 78.696C66.8329 79.576 66.4969 80.184 65.3929 80.184C64.5129 80.184 64.0169 79.784 64.0169 79.192ZM68.5929 73.096H66.5929C66.6249 74.072 66.7049 75.496 66.7689 76.68C66.4009 76.648 66.0489 76.616 65.6649 76.616C63.4409 76.616 62.1289 77.816 62.1289 79.384C62.1289 81.144 63.6969 82.024 65.6809 82.024C67.9529 82.024 68.7689 80.872 68.7689 79.384C68.7689 79.336 68.7689 79.272 68.7689 79.224C69.6489 79.752 70.3689 80.424 70.9289 80.936L72.0009 79.224C71.1849 78.488 70.0649 77.688 68.6889 77.176C68.6569 76.376 68.6089 75.608 68.5929 75.144C68.5769 74.44 68.5449 73.768 68.5929 73.096ZM71.3449 73.944L72.4809 72.264C71.6649 71.672 69.6809 70.584 68.5289 70.088L67.5049 71.672C68.5929 72.168 70.4169 73.208 71.3449 73.944ZM79.0409 77.4C78.5289 77.576 78.0009 77.736 77.4729 77.896V74.696H78.9129V72.952H77.4729V70.136H79.1849V68.36H73.9049V70.136H75.6649V72.952H74.0489V74.696H75.6649V78.456C74.9289 78.664 74.2729 78.84 73.7129 78.984L74.1449 80.92C75.6809 80.424 77.6009 79.816 79.3609 79.192L79.0409 77.4ZM81.5049 72.568H83.1529V73.944H81.5049V72.568ZM81.5049 69.736H83.1529V71.08H81.5049V69.736ZM86.3369 71.08H84.7529V69.736H86.3369V71.08ZM86.3369 73.944H84.7529V72.568H86.3369V73.944ZM84.9289 80.168V78.648H88.3209V76.936H84.9289V75.56H88.1449V68.12H79.7929V75.56H82.9929V76.936H79.6809V78.648H82.9929V80.168H78.5769V81.896H88.8649V80.168H84.9289ZM99.1529 74.408H102.097V75.368H99.1529V74.408ZM99.1529 72.088H102.097V73.016H99.1529V72.088ZM99.1529 69.752H102.097V70.68H99.1529V69.752ZM95.7929 77.48C96.5129 78.152 97.4569 79.128 97.9049 79.704L99.2809 78.552C98.8969 78.104 98.2089 77.432 97.5849 76.856H103.921V68.248H97.4249V76.712L97.1049 76.424L95.7929 77.48ZM92.7369 77.048H94.5449V73.704C95.1209 74.232 95.7129 74.808 96.0809 75.208L97.0729 73.688C96.7049 73.384 95.1849 72.296 94.5449 71.928V71.336H96.8009V69.72H94.5449V67.464H92.7369V69.72H90.1129V71.336H92.4329C91.8089 72.728 90.7689 74.12 89.7129 74.904C90.0969 75.208 90.6569 75.8 90.9289 76.216C91.5849 75.64 92.1929 74.84 92.7369 73.896V77.048ZM91.5689 81.512C92.1289 80.584 92.5929 79.16 92.9129 78.024L91.2169 77.352C90.9449 78.488 90.4009 79.8 89.8249 80.648L91.5689 81.512ZM96.4009 80.392C95.5369 80.392 95.3769 80.328 95.3769 79.848V77.688H93.4889V79.88C93.4889 81.544 94.0489 82.072 96.2249 82.072H99.1049C100.865 82.072 101.393 81.512 101.633 79.224C101.105 79.128 100.305 78.856 99.9209 78.552C99.8249 80.168 99.7129 80.392 98.9609 80.392H96.4009ZM101.185 77.912C101.809 78.984 102.689 80.392 103.073 81.24L104.849 80.328C104.417 79.496 103.489 78.136 102.849 77.144L101.185 77.912ZM120.129 75.368C120.129 71.88 117.633 69.128 113.665 69.128C109.521 69.128 106.321 72.28 106.321 75.976C106.321 78.68 107.793 80.632 109.569 80.632C111.313 80.632 112.689 78.648 113.649 75.416C114.113 73.912 114.385 72.44 114.609 71.08C116.769 71.448 117.969 73.096 117.969 75.304C117.969 77.64 116.369 79.112 114.321 79.592C113.889 79.688 113.441 79.784 112.833 79.848L114.033 81.752C118.065 81.128 120.129 78.744 120.129 75.368ZM108.369 75.768C108.369 74.008 109.793 71.672 112.433 71.128C112.257 72.456 111.953 73.816 111.585 75C110.929 77.16 110.305 78.168 109.633 78.168C109.009 78.168 108.369 77.384 108.369 75.768ZM125.745 70.248H127.585V69.752H130.945V70.248H132.817V69.752H136.465V68.248H132.817V67.448H130.945V68.248H127.585V67.448H125.745V68.248H122.177V69.752H125.745V70.248ZM126.641 77.528C126.833 77.32 127.025 77.128 127.217 76.904H131.489C131.665 77.128 131.857 77.32 132.049 77.528H126.641ZM126.497 80.808V80.216H132.145V80.808H126.497ZM132.145 79.256H126.497V78.68H132.145V79.256ZM125.745 73.192H132.801V73.8H125.745V73.192ZM125.745 71.56H132.801V72.168H125.745V71.56ZM136.577 76.904V75.464H128.209C128.321 75.272 128.401 75.08 128.497 74.888H134.689V70.472H123.953V74.888H126.529C126.433 75.08 126.321 75.272 126.193 75.464H122.065V76.904H124.833C124.033 77.544 123.009 78.104 121.681 78.552C122.033 78.856 122.529 79.496 122.721 79.944C123.425 79.672 124.049 79.368 124.625 79.032V82.408H126.497V81.96H132.145V82.408H134.113V79.032C134.673 79.32 135.249 79.56 135.857 79.736C136.097 79.304 136.577 78.648 136.961 78.328C135.697 78.04 134.481 77.544 133.553 76.904H136.577ZM142.641 68.12L142.129 70.04C143.377 70.36 146.945 71.112 148.561 71.32L149.041 69.368C147.649 69.208 144.161 68.6 142.641 68.12ZM142.737 71.336L140.593 71.032C140.481 73.016 140.113 76.152 139.793 77.72L141.633 78.184C141.777 77.864 141.937 77.608 142.225 77.256C143.233 76.04 144.865 75.368 146.673 75.368C148.065 75.368 149.057 76.136 149.057 77.176C149.057 79.208 146.513 80.376 141.713 79.72L142.321 81.816C148.977 82.376 151.281 80.136 151.281 77.224C151.281 75.288 149.649 73.56 146.849 73.56C145.169 73.56 143.585 74.024 142.129 75.08C142.241 74.168 142.529 72.216 142.737 71.336ZM159.233 68.312L156.657 68.28C156.801 68.92 156.865 69.688 156.865 70.44C156.865 71.816 156.705 76.024 156.705 78.168C156.705 80.904 158.401 82.056 161.025 82.056C164.673 82.056 166.945 79.912 167.969 78.376L166.513 76.616C165.361 78.36 163.681 79.88 161.041 79.88C159.793 79.88 158.833 79.352 158.833 77.736C158.833 75.752 158.961 72.168 159.025 70.44C159.057 69.8 159.137 68.984 159.233 68.312ZM177.073 68.168L174.961 67.992C174.929 68.568 174.817 69.192 174.641 69.832C174.385 69.832 174.113 69.832 173.873 69.832C173.057 69.832 171.873 69.768 171.057 69.64V71.512C171.937 71.576 173.105 71.608 173.761 71.608C173.825 71.608 173.889 71.608 173.969 71.608C173.249 73.048 172.113 74.472 170.433 76.024L172.145 77.304C172.689 76.6 173.153 76.024 173.633 75.544C174.241 74.952 175.233 74.44 176.129 74.44C176.577 74.44 177.009 74.584 177.249 74.984C175.425 75.928 173.505 77.208 173.505 79.256C173.505 81.32 175.361 81.928 177.873 81.928C179.377 81.928 181.345 81.8 182.401 81.656L182.465 79.592C181.057 79.864 179.281 80.04 177.921 80.04C176.353 80.04 175.601 79.8 175.601 78.92C175.601 78.12 176.241 77.496 177.441 76.808C177.425 77.512 177.409 78.28 177.361 78.76H179.281C179.265 78.024 179.233 76.84 179.217 75.944C180.193 75.496 181.105 75.144 181.825 74.856C182.369 74.648 183.217 74.328 183.729 74.184L182.929 72.328C182.337 72.632 181.777 72.888 181.153 73.16C180.497 73.448 179.825 73.72 178.993 74.104C178.641 73.288 177.841 72.872 176.865 72.872C176.337 72.872 175.473 73 175.057 73.192C175.377 72.728 175.697 72.152 175.969 71.56C177.697 71.512 179.665 71.384 181.185 71.16L181.201 69.304C179.793 69.544 178.193 69.688 176.673 69.768C176.881 69.096 176.993 68.568 177.073 68.168ZM189.777 76.312L187.665 76.12C187.553 76.728 187.361 77.496 187.361 78.424C187.361 80.632 189.201 81.864 192.865 81.864C195.105 81.864 197.025 81.64 198.417 81.304L198.401 79.064C196.993 79.448 194.945 79.688 192.785 79.688C190.481 79.688 189.505 78.968 189.505 77.928C189.505 77.4 189.617 76.888 189.777 76.312ZM197.841 67.88L196.577 68.392C196.801 68.712 197.041 69.112 197.265 69.528C196.033 69.64 194.305 69.736 192.785 69.736C191.105 69.736 189.617 69.672 188.433 69.528V71.656C189.729 71.752 191.121 71.832 192.801 71.832C194.321 71.832 196.305 71.72 197.425 71.64V69.848C197.569 70.12 197.713 70.392 197.825 70.632L199.121 70.072C198.817 69.48 198.241 68.456 197.841 67.88ZM199.745 67.16L198.465 67.672C198.913 68.28 199.425 69.208 199.761 69.88L201.041 69.336C200.753 68.776 200.161 67.752 199.745 67.16ZM213.889 70.088H209.569V69.288H213.889V70.088ZM213.889 72.12H209.569V71.304H213.889V72.12ZM215.713 67.944H207.825V73.464H215.713V67.944ZM207.025 75.928L206.769 74.216L205.329 74.6V72.232H206.929V70.472H205.329V67.448H203.601V70.472H201.873V72.232H203.601V75.064C202.881 75.24 202.241 75.416 201.697 75.528L202.129 77.368C202.593 77.24 203.073 77.096 203.601 76.952V80.152C203.601 80.36 203.521 80.424 203.329 80.424C203.137 80.44 202.593 80.44 202.001 80.424C202.241 80.92 202.449 81.704 202.497 82.168C203.521 82.184 204.225 82.12 204.705 81.8C205.185 81.512 205.329 81.048 205.329 80.168V76.44L207.025 75.928ZM212.609 78.632H215.665V77.144H212.609V75.736H216.513V74.2H207.057V75.736H210.817V79.912C210.241 79.544 209.777 78.968 209.425 78.04C209.553 77.544 209.649 77 209.729 76.424L208.001 76.216C207.761 78.392 207.105 80.168 205.777 81.224C206.161 81.464 206.881 82.056 207.185 82.36C207.873 81.704 208.449 80.856 208.849 79.848C209.937 81.784 211.553 82.168 213.649 82.168H216.433C216.497 81.688 216.721 80.888 216.945 80.504C216.257 80.52 214.273 80.52 213.729 80.52C213.329 80.52 212.977 80.504 212.609 80.472V78.632ZM221.217 67.48C220.417 69.768 219.009 72.024 217.569 73.464C217.905 73.928 218.417 74.968 218.593 75.448C218.929 75.08 219.265 74.696 219.601 74.264V82.376H221.473V71.368C222.049 70.28 222.577 69.144 222.993 68.04L221.217 67.48ZM224.945 78.088C224.289 79.224 223.169 80.392 222.049 81.144C222.465 81.4 223.185 81.992 223.537 82.344C224.641 81.432 225.921 80.024 226.721 78.632L224.945 78.088ZM228.433 78.904C229.441 79.944 230.561 81.416 231.073 82.376L232.673 81.368C232.097 80.44 230.993 79.08 229.953 78.072L228.433 78.904ZM226.369 72.392H228.689V75.576H226.369V72.392ZM230.545 75.576V72.392H232.625V70.568H230.545V67.56H228.689V70.568H226.369V67.576H224.513V70.568H222.769V72.392H224.513V75.576H222.369V77.432H232.753V75.576H230.545ZM237.457 69.56L234.993 69.528C235.089 70.024 235.121 70.712 235.121 71.16C235.121 72.136 235.137 74.008 235.297 75.48C235.745 79.768 237.265 81.352 239.025 81.352C240.305 81.352 241.313 80.376 242.369 77.592L240.769 75.64C240.465 76.92 239.825 78.792 239.073 78.792C238.065 78.792 237.585 77.208 237.361 74.904C237.265 73.752 237.249 72.552 237.265 71.512C237.265 71.064 237.345 70.136 237.457 69.56ZM245.457 69.928L243.425 70.584C245.169 72.568 246.017 76.456 246.273 79.032L248.369 78.216C248.193 75.768 246.977 71.768 245.457 69.928ZM258.689 77.096L256.785 76.904C256.657 77.544 256.497 78.312 256.497 79.048C256.497 80.664 257.953 81.592 260.641 81.592C261.921 81.592 263.009 81.48 263.905 81.368L263.985 79.32C262.833 79.528 261.729 79.656 260.657 79.656C258.945 79.656 258.465 79.128 258.465 78.424C258.465 78.072 258.561 77.544 258.689 77.096ZM256.881 68.232L254.433 68.04C254.481 68.408 254.449 69.064 254.385 69.656C254.353 69.912 254.305 70.216 254.241 70.568C253.745 70.6 253.265 70.616 252.801 70.616C252.145 70.616 251.601 70.584 250.785 70.488L250.833 72.488C251.393 72.52 252.001 72.552 252.769 72.552C253.105 72.552 253.457 72.536 253.825 72.52C253.729 72.984 253.601 73.432 253.489 73.864C252.897 76.104 251.681 79.464 250.721 81.064L252.945 81.816C253.841 79.912 254.913 76.648 255.489 74.408C255.665 73.752 255.825 73.048 255.969 72.36C257.041 72.232 258.129 72.056 259.089 71.832V69.832C258.209 70.04 257.313 70.216 256.417 70.344C256.465 70.12 256.513 69.912 256.545 69.736C256.609 69.384 256.753 68.664 256.881 68.232ZM257.825 73.064V74.936C258.833 74.824 259.825 74.776 260.913 74.776C261.889 74.776 262.865 74.872 263.665 74.968L263.713 73.048C262.769 72.952 261.809 72.904 260.897 72.904C259.873 72.904 258.721 72.984 257.825 73.064ZM271.233 68.312L268.657 68.28C268.801 68.92 268.865 69.688 268.865 70.44C268.865 71.816 268.705 76.024 268.705 78.168C268.705 80.904 270.401 82.056 273.025 82.056C276.673 82.056 278.945 79.912 279.969 78.376L278.513 76.616C277.361 78.36 275.681 79.88 273.041 79.88C271.793 79.88 270.833 79.352 270.833 77.736C270.833 75.752 270.961 72.168 271.025 70.44C271.057 69.8 271.137 68.984 271.233 68.312ZM285.841 79.192C285.841 78.648 286.465 78.2 287.601 78.2C288.049 78.2 288.481 78.248 288.913 78.312C288.929 78.6 288.929 78.824 288.929 79C288.929 79.928 288.369 80.168 287.521 80.168C286.417 80.168 285.841 79.8 285.841 79.192ZM290.849 68.056H288.689C288.753 68.36 288.785 68.856 288.785 69.16C288.785 69.352 288.785 69.608 288.785 69.912C288.577 69.912 288.369 69.912 288.161 69.912C287.185 69.912 285.361 69.752 284.209 69.56L284.257 71.384C285.313 71.528 287.169 71.672 288.177 71.672C288.369 71.672 288.561 71.672 288.769 71.672C288.753 72.216 288.753 72.792 288.753 73.32C288.497 73.32 288.241 73.32 287.985 73.32C287.137 73.32 285.169 73.208 284.129 73.016L284.145 74.904C285.201 75.032 287.025 75.112 287.953 75.112C288.241 75.112 288.513 75.112 288.785 75.112C288.801 75.592 288.817 76.104 288.849 76.6C288.529 76.568 288.193 76.552 287.857 76.552C285.393 76.552 283.905 77.688 283.905 79.304C283.905 81 285.249 81.976 287.809 81.976C289.921 81.976 290.961 80.92 290.961 79.56C290.961 79.384 290.961 79.192 290.945 78.968C292.225 79.544 293.313 80.392 294.177 81.192L295.329 79.4C294.401 78.632 292.865 77.56 290.849 76.984C290.801 76.344 290.769 75.688 290.737 75.08C292.273 75.032 293.521 74.92 294.961 74.76L294.977 72.872C293.681 73.048 292.321 73.176 290.705 73.256C290.705 72.76 290.705 72.168 290.705 71.608C292.257 71.528 293.713 71.384 294.769 71.256L294.785 69.416C293.377 69.656 292.049 69.784 290.737 69.848C290.737 69.592 290.737 69.352 290.753 69.192C290.769 68.776 290.801 68.376 290.849 68.056ZM307.745 68.104H305.425C305.473 68.296 305.537 68.84 305.585 69.496C305.601 69.624 305.601 69.784 305.617 69.992C303.441 70.024 300.529 70.088 298.705 70.088L298.753 72.024C300.721 71.912 303.217 71.816 305.633 71.784C305.649 72.136 305.649 72.504 305.649 72.856C305.441 72.824 305.233 72.808 305.009 72.808C303.265 72.808 301.809 73.992 301.809 75.8C301.809 77.752 303.329 78.744 304.561 78.744C304.817 78.744 305.057 78.712 305.281 78.664C304.401 79.624 302.993 80.152 301.377 80.488L303.089 82.184C306.993 81.096 308.209 78.44 308.209 76.36C308.209 75.528 308.017 74.776 307.633 74.168C307.633 73.464 307.617 72.584 307.617 71.768C309.793 71.768 311.281 71.8 312.241 71.848L312.257 69.96C311.425 69.944 309.233 69.976 307.617 69.976C307.633 69.784 307.633 69.608 307.633 69.48C307.649 69.224 307.713 68.36 307.745 68.104ZM303.729 75.768C303.729 74.92 304.337 74.488 304.961 74.488C305.393 74.488 305.777 74.68 306.001 75.048C306.225 76.456 305.633 76.968 304.961 76.968C304.321 76.968 303.729 76.504 303.729 75.768ZM314.791 77.032C313.383 77.032 312.215 78.2 312.215 79.624C312.215 81.048 313.383 82.216 314.791 82.216C316.231 82.216 317.383 81.048 317.383 79.624C317.383 78.2 316.231 77.032 314.791 77.032ZM314.791 81.064C314.023 81.064 313.367 80.424 313.367 79.624C313.367 78.824 314.023 78.184 314.791 78.184C315.591 78.184 316.231 78.824 316.231 79.624C316.231 80.424 315.591 81.064 314.791 81.064Z" fill="white"/>
</svg>
